# xmcd
#
# Track frame offsets: 
#        150
#        24220
#        44026
#        58368
#        83764
#        97694
#        119222
#        151463
#        171960
#        197749
#        215949
#        237107
#        254863
#        273835
#        296314
#        309502
#        330416
#
# Disc length: 4796 seconds
#
# Revision: 0
# Processed by: cddbd v1.5.2PL0 Copyright (c) Steve Scherf et al.
# Submitted via: ExactAudioCopy v0.95a5
#
DISCID=fb12ba11
DTITLE=Various Artist - Akella Presents - Modern Electric Blues - vol.24  CD1
DYEAR=2011
DGENRE=Blues
TTITLE0=Miracle - The ROCKY ATHAS GROUP
TTITLE1=Marry You - DOYLE BRAMHALL
TTITLE2=All Your Love (I Miss Loving) - STEVE MILLER BAND
TTITLE3=Superstition - The HOAX
TTITLE4=Red Wine Blues - SNOWY WHITE BLUES PROJECT
TTITLE5=Through My Eyes - BUDDAHEADS
TTITLE6=Love So Cold - IAN PARKER
TTITLE7=Ice Cubes In Her Wine - JOHN CAMPBELLJOHN
TTITLE8=Long Ride - STORM WARNING
TTITLE9=The Chokin' Kind -  FRED CHAPELIER and MIGUEL M
TTITLE10=Fly - PAUL BLACK
TTITLE11=Leaving Home Blues - MICK ABRAHAMS
TTITLE12=Illinois Blues - L.A. BLUES ALLIANCE
TTITLE13=New Man Out Of Me - NICO WAYNE TOUSSAINT
TTITLE14=Ooh La La - DEREK MILLER
TTITLE15=Sweet Angel - TOM PRINCIPATO
TTITLE16=Long Train Boogie - BROTHER GOOSE
EXTD=
EXTT0=
EXTT1=
EXTT2=
EXTT3=
EXTT4=
EXTT5=
EXTT6=
EXTT7=
EXTT8=
EXTT9=
EXTT10=
EXTT11=
EXTT12=
EXTT13=
EXTT14=
EXTT15=
EXTT16=
PLAYORDER=
